<?xml version="1.0" encoding="utf-8"?>
<!-- Generator: Adobe Illustrator 18.0.0, SVG Export Plug-In . SVG Version: 6.00 Build 0)  -->
<!DOCTYPE svg PUBLIC "-//W3C//DTD SVG 1.1//EN" "http://www.w3.org/Graphics/SVG/1.1/DTD/svg11.dtd">
<svg version="1.1" id="图层_1" xmlns="http://www.w3.org/2000/svg" xmlns:xlink="http://www.w3.org/1999/xlink" x="0px" y="0px"
	 viewBox="0 0 11.4 6.1" enable-background="new 0 0 11.4 6.1" xml:space="preserve">
<path fill="#F16578" d="M6,5.9l5.3-5.3c0.1-0.1,0.1-0.2,0.1-0.3c0-0.1,0-0.2-0.1-0.3l0,0c-0.1-0.1-0.2-0.1-0.3-0.1H8.4
	c-0.1,0-0.2,0-0.3,0.1L5.7,2.6L3.3,0.2C3.2,0.1,3.1,0.1,3,0.1H0.5c-0.1,0-0.2,0-0.3,0.1l0,0C0.1,0.2,0.1,0.3,0.1,0.4
	c0,0.1,0,0.2,0.1,0.3l5.3,5.3C5.6,6.1,5.8,6.1,6,5.9"/>
</svg>
