<?xml version="1.0" encoding="utf-8"?>
<!DOCTYPE svg PUBLIC "-//W3C//DTD SVG 1.1//EN" "http://www.w3.org/Graphics/SVG/1.1/DTD/svg11.dtd">
<svg style="width:308px;height:308px;" version="1.1" id="图形" xmlns="http://www.w3.org/2000/svg" xmlns:xlink="http://www.w3.org/1999/xlink" x="0px" y="0px" width="1075px" height="1024px" viewBox="0 0 1075 1024" enable-background="new 0 0 1075 1024" xml:space="preserve">
  <path class="svgpath" data-index="path_0" fill="#ddd" d="M720.062159 884.171777C747.189454 911.299046 791.16271 911.299046 818.290005 884.171777L916.552534 785.909242C943.679778 758.781978 943.679778 714.808712 916.552534 687.681443L789.530211 560.659146 670.218876 441.313065C723.466097 409.948246 792.934149 416.686646 838.678844 462.396616L1014.815064 638.53281C1069.069602 692.787344 1069.069602 780.733876 1014.815064 835.023144L867.438637 982.399576C813.184099 1036.65411 725.202801 1036.65411 670.948262 982.399576L494.812093 806.263377C449.102134 760.553412 442.363729 691.08538 473.728552 637.803399L720.062159 884.171777 720.062159 884.171777ZM73.071652 188.032617 220.448079 40.690915C274.702618-13.563638 362.683864-13.563638 416.938403 40.690915L593.074623 216.827115C638.784582 262.53708 645.522987 332.005116 614.158164 385.287098L367.824506 138.95345C340.697262 111.826186 296.724006 111.826186 269.596711 138.95345L171.334182 237.215984C144.206938 264.343249 144.206938 308.316515 171.334182 335.443784L417.66784 581.777427C364.420568 613.10751 294.952567 606.403845 249.207872 560.693881L73.071652 384.557681C18.817114 330.268413 18.817114 242.287151 73.071652 188.032617L73.071652 188.032617ZM732.358027 675.385601 707.801078 699.942555C687.446923 720.296689 654.484336 720.296689 634.130232 699.942555L355.528689 421.341006C335.174534 400.986872 335.174534 367.989555 355.528689 347.670156L380.085638 323.113207C400.439742 302.759073 433.402329 302.759073 453.756484 323.113207L732.358027 601.714755C752.712182 622.06889 752.712182 655.066202 732.358027 675.385601L732.358027 675.385601Z" />

</svg>
